<svg aria-hidden="true" style="position: absolute; width: 0; height: 0; overflow: hidden;" version="1.1" xmlns="http://www.w3.org/2000/svg" xmlns:xlink="http://www.w3.org/1999/xlink">
<defs>
<symbol id="icon-Gear-NFT" viewBox="0 0 32 32">
<path d="M0 0h32v32h-32v-32z"></path>
</symbol>
<symbol id="icon-entypo-social_linkedin-with-circle" viewBox="0 0 32 32">
<path fill="#000" style="fill: var(--color1, #000)" d="M32 16c0 8.837-7.163 16-16 16s-16-7.163-16-16c0-8.837 7.163-16 16-16s16 7.163 16 16z"></path>
<path fill="#fff" style="fill: var(--color2, #fff)" d="M10.623 20.922c0 0.501 0.425 0.911 0.947 0.911h1.082v2.58c0 0.654 0.545 1.187 1.214 1.187 0.671 0 1.214-0.531 1.214-1.187v-2.582h1.889v2.58c0 0.654 0.545 1.187 1.214 1.187 0.671 0 1.214-0.531 1.214-1.187v-2.58h1.082c0.522 0 0.947-0.409 0.947-0.911v-8.468h-10.803v8.47zM18.561 8.064l0.998-1.393c0.058-0.081 0.044-0.191-0.033-0.244-0.078-0.051-0.189-0.026-0.247 0.056l-1.036 1.448c-0.682-0.259-1.443-0.403-2.241-0.403s-1.558 0.144-2.241 0.403l-1.036-1.446c-0.058-0.081-0.169-0.109-0.247-0.056-0.078 0.051-0.091 0.159-0.033 0.244l0.998 1.393c-1.587 0.711-2.698 2.059-2.841 3.634h10.803c-0.147-1.577-1.26-2.925-2.845-3.636v0zM13.722 10.26c-0.118 0-0.234-0.034-0.332-0.097s-0.175-0.153-0.22-0.259c-0.045-0.105-0.057-0.221-0.034-0.333s0.080-0.214 0.164-0.295c0.084-0.081 0.19-0.136 0.306-0.158s0.236-0.011 0.345 0.033c0.109 0.044 0.203 0.117 0.268 0.212s0.101 0.206 0.101 0.32c-0 0.153-0.064 0.299-0.176 0.407s-0.264 0.169-0.422 0.169v0zM18.354 10.26c-0.118 0-0.234-0.034-0.332-0.097s-0.175-0.153-0.22-0.259c-0.045-0.105-0.057-0.221-0.034-0.333s0.080-0.214 0.164-0.295c0.084-0.081 0.19-0.136 0.306-0.158s0.236-0.011 0.346 0.033c0.109 0.044 0.203 0.117 0.268 0.212s0.101 0.206 0.101 0.32c-0 0.153-0.064 0.299-0.176 0.407s-0.264 0.169-0.422 0.169zM23.32 12.418c-0.671 0-1.214 0.531-1.214 1.187v4.637c0 0.654 0.545 1.187 1.214 1.187 0.671 0 1.214-0.531 1.214-1.187v-4.639c0.002-0.656-0.54-1.185-1.214-1.185zM8.68 12.418c-0.671 0-1.214 0.531-1.214 1.187v4.637c0 0.654 0.545 1.187 1.214 1.187 0.671 0 1.214-0.531 1.214-1.187v-4.639c0-0.656-0.545-1.185-1.214-1.185z"></path>
</symbol>
<symbol id="icon-Group-94" viewBox="0 0 32 32">
<path fill="#000" style="fill: var(--color1, #000)" d="M32 16c0 8.837-7.163 16-16 16s-16-7.163-16-16c0-8.837 7.163-16 16-16s16 7.163 16 16z"></path>
<path fill="#fff" style="fill: var(--color2, #fff)" d="M19.884 10.667c-1.68 0-2.39 0.807-3.561 0.807-1.2 0-2.115-0.802-3.571-0.802-1.425 0-2.945 0.876-3.91 2.369-1.355 2.105-1.125 6.069 1.070 9.446 0.785 1.209 1.834 2.565 3.209 2.579h0.025c1.195 0 1.55-0.788 3.195-0.797h0.025c1.62 0 1.945 0.793 3.136 0.793h0.025c1.375-0.015 2.48-1.517 3.265-2.721 0.565-0.866 0.775-1.301 1.209-2.281-3.175-1.214-3.685-5.746-0.545-7.483-0.959-1.208-2.305-1.908-3.575-1.908l0.004-0.002z"></path>
<path fill="#fff" style="fill: var(--color2, #fff)" d="M19.699 6.4c-0.967 0.065-2.096 0.67-2.757 1.459-0.6 0.716-1.093 1.778-0.9 2.807h0.077c1.030 0 2.085-0.609 2.7-1.39 0.593-0.743 1.043-1.796 0.879-2.877z"></path>
</symbol>
<symbol id="icon-Group-422" viewBox="0 0 32 32">
<path fill="#000" style="fill: var(--color1, #000)" d="M32 16c0 8.837-7.163 16-16 16s-16-7.163-16-16c0-8.837 7.163-16 16-16s16 7.163 16 16z"></path>
<path fill="#fff" style="fill: var(--color2, #fff)" d="M12.134 22h-2.902v-9.347h2.902v9.347zM10.681 11.378c-0.928 0-1.681-0.769-1.681-1.697 0-0.446 0.177-0.873 0.492-1.189s0.743-0.492 1.189-0.492c0.446 0 0.873 0.177 1.189 0.492s0.492 0.743 0.492 1.189c0 0.928-0.753 1.697-1.681 1.697zM22.997 22h-2.896v-4.55c0-1.084-0.022-2.475-1.509-2.475-1.509 0-1.74 1.178-1.74 2.397v4.628h-2.9v-9.347h2.784v1.275h0.040c0.388-0.734 1.334-1.51 2.746-1.51 2.938 0 3.478 1.935 3.478 4.447v5.134h-0.003z"></path>
</symbol>
<symbol id="icon-Group-430" viewBox="0 0 32 32">
<path fill="#000" style="fill: var(--color1, #000)" d="M32 16c0 8.837-7.163 16-16 16s-16-7.163-16-16c0-8.837 7.163-16 16-16s16 7.163 16 16z"></path>
<path fill="#fff" style="fill: var(--color2, #fff)" d="M23.067 10.799c-0.592 0.418-1.247 0.737-1.941 0.946-0.372-0.428-0.867-0.732-1.417-0.869s-1.13-0.103-1.66 0.099c-0.53 0.202-0.985 0.562-1.304 1.032s-0.485 1.025-0.478 1.593v0.618c-1.086 0.028-2.163-0.213-3.134-0.701s-1.805-1.21-2.43-2.099c0 0-2.473 5.564 3.091 8.036-1.273 0.864-2.79 1.298-4.327 1.236 5.564 3.091 12.364 0 12.364-7.109-0.001-0.172-0.017-0.344-0.049-0.513 0.631-0.622 1.076-1.408 1.286-2.269z"></path>
</symbol>
<symbol id="icon-Group-433" viewBox="0 0 32 32">
<path fill="#000" style="fill: var(--color1, #000)" d="M32 16c0 8.837-7.163 16-16 16s-16-7.163-16-16c0-8.837 7.163-16 16-16s16 7.163 16 16z"></path>
<path fill="#fff" style="fill: var(--color2, #fff)" d="M19.2 9.333h-2c-0.884 0-1.732 0.351-2.357 0.976s-0.976 1.473-0.976 2.357v2h-2v2.667h2v5.333h2.667v-5.333h2l0.667-2.667h-2.667v-2c0-0.177 0.070-0.346 0.195-0.471s0.295-0.195 0.471-0.195h2v-2.667z"></path>
</symbol>
</defs>
</svg>
